<?xml version="1.0" encoding="utf-8"?>
<!-- Generator: Adobe Illustrator 22.0.1, SVG Export Plug-In . SVG Version: 6.00 Build 0)  -->
<svg version="1.1" id="Capa_1" xmlns="http://www.w3.org/2000/svg" xmlns:xlink="http://www.w3.org/1999/xlink" x="0px" y="0px"
	 viewBox="0 0 447.5 112.3" style="enable-background:new 0 0 447.5 112.3;" xml:space="preserve">
<style type="text/css">
	.st0{fill:#0AACDD;}
	.st1{fill:#262626;}
	.st2{fill:#2D2D2D;}
</style>
<g>
	<g>
		<path class="st0" d="M102.4,57c0,20.7-13.4,38.2-32,44.5c-0.8,0.3-1.6,0.5-2.4,0.7c-4,1.1-8.1,1.7-12.4,1.7
			c-9.8,0-18.9-3-26.4-8.2c-0.7-0.5-1.5-1-2.2-1.6C15.8,85.5,8.7,72.1,8.7,57c0-25.9,21-46.9,46.9-46.9S102.4,31.1,102.4,57z"/>
	</g>
	<g>
		<g>
			<path class="st1" d="M94.4,55.3C94.4,55.3,94.4,55.3,94.4,55.3C94.4,55.3,94.4,55.3,94.4,55.3c-0.3-0.3-0.7-0.4-1.1-0.3
				l-18.2,3.7v-7.8c0-5.3-4.3-9.5-9.5-9.5H31.9c-0.6,0-1.2,0.5-1.2,1.1l-3.8,51.6c0.7,0.6,1.4,1.1,2.2,1.6c0.1-0.1,0.1-0.3,0.1-0.4
				l2.1-28l13-1.3l4-22.1h17.3c3.9,0,7.1,3.2,7.1,7.1v9.3c0,0.4,0.2,0.7,0.4,0.9c0.3,0.2,0.6,0.3,1,0.2l9.4-1.9c1,3.4,3.8,6,7.3,6.9
				l-2.3,15.5l-18.6,0.8c-0.6,0-1.1,0.5-1.2,1.1L68,102.2c0.8-0.2,1.6-0.5,2.4-0.7L71.1,85l18.5-0.8c0.6,0,1.1-0.5,1.1-1l4-26.8
				C94.8,56,94.7,55.6,94.4,55.3z M42.3,63.7l-10.8,1.1l1.6-21h12.8L42.3,63.7z M90.7,63.8c-2.1-0.7-3.8-2.3-4.6-4.4l5.4-1.1
				L90.7,63.8z"/>
		</g>
		<ellipse class="st1" cx="53.5" cy="63.5" rx="2" ry="4.3"/>
		<ellipse class="st1" cx="62.7" cy="61.8" rx="2" ry="4.3"/>
		<g>
			<path class="st1" d="M94.4,55.3C94.4,55.3,94.4,55.3,94.4,55.3C94.4,55.3,94.4,55.3,94.4,55.3L94.4,55.3L94.4,55.3z"/>
		</g>
	</g>
</g>
<g>
	<path class="st2" d="M117,41.1h30.5l1,6.6h-12.1v30h-8.5v-30H117V41.1z"/>
	<path class="st2" d="M163.6,58c-1,0-2.2,0.2-3.6,0.5c-1.3,0.3-2.5,0.7-3.5,1.2l-2.3-6.5c1.2-0.6,2.8-1.2,4.9-1.7
		c2.1-0.5,3.9-0.7,5.6-0.7c2.2,0,4.1,0.4,5.8,1.3c1.7,0.9,3,2.1,3.9,3.6c0.9,1.6,1.4,3.3,1.4,5.4v16.6h-4.7l-2-2.7
		c-1.9,2.2-4.1,3.3-6.4,3.3c-3.2,0-5.5-0.8-7.2-2.3s-2.4-3.7-2.4-6.4c0-2.7,0.9-4.6,2.7-6c1.8-1.3,4.3-2,7.4-2h4.1
		c-0.1-1.1-0.4-2-1.1-2.7C165.6,58.3,164.7,58,163.6,58z M163.3,66.7c-0.9,0-1.6,0.3-2.2,0.8c-0.6,0.5-0.8,1.2-0.8,2
		c0,0.6,0.2,1.2,0.7,1.7c0.5,0.5,1.1,0.7,1.8,0.7c1.6,0,3.1-0.7,4.6-2v-3.2H163.3z"/>
	<path class="st2" d="M225.8,60.6v17.1h-8.4v-16c0-1.3-0.2-2.3-0.6-3c-0.4-0.7-1.2-1-2.3-1c-0.8,0-1.6,0.2-2.5,0.6
		c-0.9,0.4-2,1-3.1,1.6v0.7v17.1h-8.4v-16c0-1.3-0.2-2.3-0.6-3c-0.4-0.7-1.2-1-2.3-1c-0.8,0-1.6,0.2-2.6,0.6c-1,0.4-2,1-3.1,1.6
		v17.8h-8.5V51.6h5.2l1.5,2.7c1.6-1.1,3.2-1.9,5-2.6c1.8-0.7,3.4-1,5-1c3.5,0,6,1.1,7.4,3.4c1.5-1,3.2-1.8,4.8-2.4
		c1.7-0.6,3.3-0.9,4.8-0.9c3.1,0,5.4,0.9,6.7,2.6C225.2,55,225.8,57.4,225.8,60.6z"/>
	<path class="st2" d="M243,58c-1,0-2.2,0.2-3.6,0.5c-1.3,0.3-2.5,0.7-3.5,1.2l-2.3-6.5c1.2-0.6,2.8-1.2,4.9-1.7
		c2.1-0.5,3.9-0.7,5.6-0.7c2.2,0,4.1,0.4,5.8,1.3c1.7,0.9,3,2.1,3.9,3.6c0.9,1.6,1.4,3.3,1.4,5.4v16.6h-4.7l-2-2.7
		c-1.9,2.2-4.1,3.3-6.4,3.3c-3.2,0-5.5-0.8-7.2-2.3s-2.4-3.7-2.4-6.4c0-2.7,0.9-4.6,2.7-6c1.8-1.3,4.3-2,7.4-2h4.1
		c-0.1-1.1-0.4-2-1.1-2.7C245,58.3,244.1,58,243,58z M242.7,66.7c-0.9,0-1.6,0.3-2.2,0.8c-0.6,0.5-0.8,1.2-0.8,2
		c0,0.6,0.2,1.2,0.7,1.7c0.5,0.5,1.1,0.7,1.8,0.7c1.6,0,3.1-0.7,4.6-2v-3.2H242.7z"/>
	<path class="st2" d="M271.8,39.7v38h-8.4V40.3L271.8,39.7z"/>
	<path class="st2" d="M289,43.4c0,1.3-0.5,2.3-1.4,3.3c-0.9,0.9-2,1.4-3.3,1.4c-1.3,0-2.3-0.5-3.3-1.4c-0.9-0.9-1.4-2-1.4-3.3
		c0-1.3,0.5-2.4,1.4-3.3c0.9-0.9,2-1.4,3.3-1.4c1.3,0,2.4,0.5,3.3,1.4C288.5,41,289,42.1,289,43.4z M288.6,51.6v26.1h-8.5V51.6
		H288.6z"/>
	<path class="st2" d="M310.9,57.6c-1.5,0-3.6,0.8-6.1,2.3v17.8h-8.5V51.6h5.2l1.5,2.7c1.6-1.1,3.3-1.9,5.1-2.6c1.8-0.7,3.6-1,5.2-1
		c3.2,0,5.6,0.9,7,2.8c1.5,1.8,2.2,4.4,2.2,7.6v16.6h-8.5v-16c0-1.3-0.3-2.3-0.8-3C312.8,58,312,57.6,310.9,57.6z"/>
	<path class="st2" d="M355.1,77.7h-4.3l-1.6-2.1c-1.1,0.8-2.2,1.5-3.5,2c-1.3,0.5-2.5,0.7-3.9,0.7c-4.1,0-7.3-1.2-9.7-3.6
		c-2.4-2.4-3.6-5.7-3.6-10.1c0-4.3,1.2-7.7,3.7-10.2c2.4-2.5,5.8-3.7,10-3.7c1.5,0,3,0.4,4.5,1.1V40.3l8.5-0.6V77.7z M342.7,71.6
		c1.2,0,2.5-0.5,3.9-1.5V58.9c-1.3-0.9-2.7-1.3-4.1-1.3c-1.6,0-2.9,0.6-3.8,1.9c-1,1.3-1.5,3-1.5,5.1c0,2.2,0.5,3.8,1.5,5.1
		C339.7,71,341,71.6,342.7,71.6z"/>
	<path class="st2" d="M376.1,78.3c-2.8,0-5.3-0.5-7.5-1.6c-2.2-1.1-3.8-2.6-5-4.7c-1.2-2.1-1.8-4.5-1.8-7.5c0-2.8,0.6-5.2,1.9-7.3
		c1.2-2.1,2.9-3.7,5.1-4.8c2.2-1.1,4.7-1.7,7.5-1.7c2.8,0,5.3,0.5,7.5,1.6c2.2,1.1,3.9,2.7,5.1,4.8c1.2,2.1,1.8,4.6,1.8,7.5
		c0,2.8-0.6,5.2-1.9,7.3c-1.2,2-3,3.6-5.1,4.7C381.4,77.8,378.9,78.3,376.1,78.3z M381.9,64.7c0-2-0.5-3.7-1.5-5
		c-1-1.3-2.4-1.9-4.1-1.9c-1.8,0-3.2,0.6-4.2,1.9c-1,1.2-1.6,2.9-1.6,4.9s0.5,3.7,1.5,4.9c1,1.2,2.4,1.9,4.1,1.9s3.1-0.6,4.1-1.8
		C381.3,68.3,381.9,66.7,381.9,64.7z"/>
	<path class="st2" d="M405.3,78.3c-1.4,0-3.2-0.2-5.2-0.7c-2-0.5-3.7-1.2-4.9-2.2l2.5-5.5c1.1,0.5,2.3,1,3.7,1.3
		c1.3,0.3,2.5,0.5,3.4,0.5c0.9,0,1.6-0.2,2.3-0.5c0.7-0.3,1-0.7,1-1.3c0-0.5-0.3-0.9-0.9-1.3c-0.6-0.4-1.5-0.8-2.6-1.2
		c-2.6-0.9-4.8-2-6.5-3.3c-1.7-1.3-2.5-3-2.5-5.1c0-2.6,1-4.6,2.9-6.1c1.9-1.5,4.6-2.2,8-2.2c1.4,0,3,0.2,4.8,0.7
		c1.8,0.4,3.3,1.1,4.6,2.1l-2.4,5.5c-2.5-1.1-4.7-1.7-6.7-1.7c-0.8,0-1.5,0.2-2,0.5s-0.8,0.7-0.8,1.2c0,0.6,1.1,1.3,3.4,2
		c6,2.1,9,5,9,8.7c0,2.7-0.9,4.8-2.8,6.2C411.6,77.6,408.9,78.3,405.3,78.3z"/>
</g>
<g>
	<path class="st0" d="M439.2,64c0,3-1.9,5.5-4.6,6.4c-0.1,0-0.2,0.1-0.3,0.1c-0.6,0.2-1.2,0.2-1.8,0.2c-1.4,0-2.7-0.4-3.8-1.2
		c-0.1-0.1-0.2-0.1-0.3-0.2c-1.6-1.2-2.6-3.1-2.6-5.3c0-3.7,3-6.7,6.7-6.7C436.2,57.3,439.2,60.3,439.2,64z"/>
</g>
</svg>
